<?xml version="1.0" ?>
<!DOCTYPE svg  PUBLIC '-//W3C//DTD SVG 1.1//EN'  'http://www.w3.org/Graphics/SVG/1.1/DTD/svg11.dtd'>
<!-- Uploaded to: SVG Repo, www.svgrepo.com, Generator: SVG Repo Mixer Tools -->
<svg fill="#000000" width="800px" height="800px" viewBox="0 0 32 32" style="fill-rule:evenodd;clip-rule:evenodd;stroke-linejoin:round;stroke-miterlimit:2;" version="1.1" xml:space="preserve" xmlns="http://www.w3.org/2000/svg" xmlns:serif="http://www.serif.com/" xmlns:xlink="http://www.w3.org/1999/xlink">
<g transform="matrix(1,0,0,1,-144,-48)">
<g transform="matrix(1,0,0,0.964912,0,1.78947)">
<path d="M173,53.073C173,52.523 172.789,51.996 172.414,51.607C172.039,51.218 171.53,51 171,51C166.157,51 153.843,51 149,51C148.47,51 147.961,51.218 147.586,51.607C147.211,51.996 147,52.523 147,53.073C147,57.044 147,65.683 147,69.655C147,70.204 147.211,70.731 147.586,71.12C147.961,71.509 148.47,71.727 149,71.727C153.843,71.727 166.157,71.727 171,71.727C171.53,71.727 172.039,71.509 172.414,71.12C172.789,70.731 173,70.204 173,69.655C173,65.683 173,57.044 173,53.073Z" style="fill:rgb(144,224,239);"/>
</g>
<path d="M159,72L159,76L155,76C154.448,76 154,76.448 154,77C154,77.552 154.448,78 155,78L165,78C165.552,78 166,77.552 166,77C166,76.448 165.552,76 165,76L161,76C161,76 161,72 161,72L171,72C171.796,72 172.559,71.684 173.121,71.121C173.684,70.559 174,69.796 174,69L174,53C174,52.204 173.684,51.441 173.121,50.879C172.559,50.316 171.796,50 171,50L149,50C148.204,50 147.441,50.316 146.879,50.879C146.316,51.441 146,52.204 146,53C146,56.832 146,65.168 146,69C146,69.796 146.316,70.559 146.879,71.121C147.441,71.684 148.204,72 149,72L159,72ZM172,53L172,69C172,69.265 171.895,69.52 171.707,69.707C171.52,69.895 171.265,70 171,70C171,70 149,70 149,70C148.735,70 148.48,69.895 148.293,69.707C148.105,69.52 148,69.265 148,69L148,53C148,52.735 148.105,52.48 148.293,52.293C148.48,52.105 148.735,52 149,52C149,52 171,52 171,52C171.265,52 171.52,52.105 171.707,52.293C171.895,52.48 172,52.735 172,53ZM157,58L155,58C154.448,58 154,58.448 154,59L154,65C154,65.796 154.316,66.559 154.879,67.121C155.441,67.684 156.204,68 157,68C158.743,68 161.257,68 163,68C163.796,68 164.559,67.684 165.121,67.121C165.684,66.559 166,65.796 166,65L166,59C166,58.448 165.552,58 165,58L163,58L163,57C163,55.344 161.656,54 160,54C158.344,54 157,55.344 157,57L157,58ZM157,60L156,60C156,60 156,65 156,65C156,65.265 156.105,65.52 156.293,65.707C156.48,65.895 156.735,66 157,66L163,66C163.265,66 163.52,65.895 163.707,65.707C163.895,65.52 164,65.265 164,65L164,60L163,60L163,61C163,61.552 162.552,62 162,62C161.448,62 161,61.552 161,61L161,60L159,60L159,61C159,61.552 158.552,62 158,62C157.448,62 157,61.552 157,61L157,60ZM161,58L161,57C161,56.448 160.552,56 160,56C159.448,56 159,56.448 159,57L159,58L161,58Z" style="fill:rgb(25,144,167);"/>
</g>
</svg>