<?xml version="1.0" ?>
<!DOCTYPE svg  PUBLIC '-//W3C//DTD SVG 1.1//EN'  'http://www.w3.org/Graphics/SVG/1.1/DTD/svg11.dtd'>
<!-- Uploaded to: SVG Repo, www.svgrepo.com, Generator: SVG Repo Mixer Tools -->
<svg fill="#000000" width="800px" height="800px" viewBox="0 0 32 32" style="fill-rule:evenodd;clip-rule:evenodd;stroke-linejoin:round;stroke-miterlimit:2;" version="1.1" xml:space="preserve" xmlns="http://www.w3.org/2000/svg" xmlns:serif="http://www.serif.com/" xmlns:xlink="http://www.w3.org/1999/xlink">
<g transform="matrix(1,0,0,1,-384,-288)">
<g transform="matrix(1.03704,0,0,1.03704,-16.3704,-10.7407)">
<circle cx="401.5" cy="303.5" r="13.5" style="fill:rgb(144,224,239);"/>
</g>
<path d="M400,289C391.721,289 385,295.721 385,304C385,312.279 391.721,319 400,319C408.279,319 415,312.279 415,304C415,295.721 408.279,289 400,289ZM400,291C407.175,291 413,296.825 413,304C413,311.175 407.175,317 400,317C392.825,317 387,311.175 387,304C387,296.825 392.825,291 400,291ZM405.634,308.819C402.084,310.524 397.916,310.524 394.366,308.819C393.868,308.58 393.27,308.79 393.031,309.287C392.792,309.785 393.002,310.383 393.5,310.622C397.596,312.589 402.404,312.589 406.5,310.622C406.998,310.383 407.208,309.785 406.969,309.287C406.73,308.79 406.132,308.58 405.634,308.819ZM394,298C392.896,298 392,298.896 392,300C392,301.104 392.896,302 394,302C395.104,302 396,301.104 396,300C396,298.896 395.104,298 394,298ZM406,298C404.896,298 404,298.896 404,300C404,301.104 404.896,302 406,302C407.104,302 408,301.104 408,300C408,298.896 407.104,298 406,298Z" style="fill:rgb(25,144,167);"/>
</g>
</svg>