<?xml version="1.0" encoding="iso-8859-1"?>
<!-- Uploaded to: SVG Repo, www.svgrepo.com, Generator: SVG Repo Mixer Tools -->
<svg height="800px" width="800px" version="1.1" id="Capa_1" xmlns="http://www.w3.org/2000/svg" xmlns:xlink="http://www.w3.org/1999/xlink" 
	 viewBox="0 0 466.03 466.03" xml:space="preserve">
<g>
	<path style="fill:#CE0649;" d="M272.61,371.19c0,4.94-0.88,8.28-2.6,9.94c-3.54,3.4-13.5,3-24.05,2.58
		c-4.13-0.16-8.41-0.33-12.94-0.33c-4.54,0-8.81,0.17-12.95,0.33c-10.55,0.42-20.51,0.82-24.04-2.58c-1.73-1.66-2.61-5-2.61-9.94
		c0-2.79,0.3-5.52,0.85-8.14c11.45-7.77,24.79-11.85,38.75-11.85c13.96,0,27.29,4.09,38.75,11.85
		C272.32,365.68,272.61,368.4,272.61,371.19z"/>
	<path style="fill:#F9C5EE;" d="M53.39,286.4c0,1.73,0.03,3.45,0.08,5.16c-10.74-3.38-18.55-13.42-18.55-25.26
		c0-11.8,7.77-21.83,18.47-25.23V286.4z"/>
	<path style="fill:#F9C5EE;" d="M412.64,241.07c10.7,3.4,18.47,13.43,18.47,25.23c0,11.84-7.81,21.88-18.55,25.26
		c0.05-1.71,0.08-3.43,0.08-5.16V241.07z"/>
	<path style="fill:#7C460A;" d="M426.93,209.92c0,6.57-0.34,13.14-1,19.66c-4.06-2.36-8.53-4.07-13.29-4.98v-20.92
		c0-18.29-9.59-34.47-25.64-43.28c-15.96-8.75-34.61-8.15-49.91,1.61c-31.07,19.8-67.05,30.26-104.08,30.26
		c-37.02,0-73-10.46-104.07-30.26c-15.3-9.76-33.96-10.35-49.91-1.6c-16.05,8.8-25.64,24.98-25.64,43.27v20.92
		c-4.76,0.91-9.24,2.62-13.29,4.98c-0.66-6.51-1-13.09-1-19.66C39.1,102.99,126.09,16,233.01,16
		C339.94,16,426.93,102.99,426.93,209.92z"/>
	<path style="fill:#FCD9EB;" d="M396.64,203.68v82.72c0,90.23-73.4,163.63-163.62,163.63c-90.23,0-163.63-73.4-163.63-163.63v-82.72
		c0-12.36,6.48-23.29,17.34-29.25c10.75-5.89,23.31-5.5,33.61,1.07c33.64,21.44,72.6,32.77,112.67,32.77
		c40.08,0,79.04-11.33,112.68-32.77c10.3-6.56,22.86-6.96,33.61-1.07C390.16,180.39,396.64,191.32,396.64,203.68z M332.92,236.19
		c3.13-3.13,3.12-8.19,0-11.32c-13.33-13.33-35.03-13.33-48.37,0c-3.12,3.13-3.12,8.19,0,11.32c3.13,3.12,8.19,3.12,11.32,0
		c7.09-7.1,18.64-7.1,25.74,0c1.56,1.56,3.61,2.34,5.65,2.34C329.31,238.53,331.36,237.75,332.92,236.19z M322.2,286.84
		c0-7.44-6.03-13.46-13.46-13.46c-7.44,0-13.46,6.02-13.46,13.46c0,7.43,6.02,13.46,13.46,13.46
		C316.17,300.3,322.2,294.27,322.2,286.84z M281.09,392.67c5.06-4.86,7.52-11.89,7.52-21.48c0-5.12-0.71-10.07-2.01-14.77
		c-0.05-0.24-0.12-0.48-0.2-0.71c-6.72-23.14-28.1-40.12-53.38-40.12c-25.21,0-46.55,16.88-53.33,39.92
		c-0.12,0.33-0.22,0.67-0.29,1.02c-1.28,4.67-1.98,9.58-1.98,14.66c0,9.59,2.46,16.62,7.52,21.48c8.45,8.12,21.1,7.61,35.76,7.03
		c3.99-0.16,8.1-0.32,12.32-0.32c4.21,0,8.33,0.16,12.31,0.32c3.7,0.15,7.27,0.29,10.67,0.29
		C266.11,399.99,274.78,398.74,281.09,392.67z M183.99,236.19c3.13-3.13,3.13-8.19,0-11.32c-13.33-13.33-35.03-13.33-48.36,0
		c-3.13,3.13-3.13,8.19,0,11.32c3.12,3.12,8.19,3.12,11.31,0c7.1-7.1,18.64-7.1,25.74,0c1.56,1.56,3.61,2.34,5.66,2.34
		C180.38,238.53,182.43,237.75,183.99,236.19z M173.27,286.84c0-7.44-6.03-13.46-13.46-13.46c-7.44,0-13.46,6.02-13.46,13.46
		c0,7.43,6.02,13.46,13.46,13.46C167.24,300.3,173.27,294.27,173.27,286.84z"/>
	<path style="fill:#333333;" d="M440.28,243.25c4.31,6.65,6.83,14.56,6.83,23.05c0,21.15-15.54,38.73-35.8,41.94
		c-10.81,88.79-86.64,157.79-178.29,157.79c-91.66,0-167.49-69-178.3-157.79c-20.26-3.21-35.8-20.79-35.8-41.94
		c0-8.49,2.52-16.4,6.83-23.04c-1.75-10.95-2.65-22.15-2.65-33.34C23.1,94.17,117.27,0,233.01,0
		c115.75,0,209.92,94.17,209.92,209.92C442.93,221.11,442.03,232.3,440.28,243.25z M431.11,266.3c0-11.8-7.77-21.83-18.47-25.23
		v45.33c0,1.73-0.03,3.45-0.08,5.16C423.3,288.18,431.11,278.14,431.11,266.3z M425.93,229.58c0.66-6.52,1-13.09,1-19.66
		C426.93,102.99,339.94,16,233.01,16C126.09,16,39.1,102.99,39.1,209.92c0,6.57,0.34,13.15,1,19.66c4.05-2.36,8.53-4.07,13.29-4.98
		v-20.92c0-18.29,9.59-34.47,25.64-43.27c15.95-8.75,34.61-8.16,49.91,1.6c31.07,19.8,67.05,30.26,104.07,30.26
		c37.03,0,73.01-10.46,104.08-30.26c15.3-9.76,33.95-10.36,49.91-1.61c16.05,8.81,25.64,24.99,25.64,43.28v20.92
		C417.4,225.51,421.87,227.22,425.93,229.58z M396.64,286.4v-82.72c0-12.36-6.48-23.29-17.34-29.25
		c-10.75-5.89-23.31-5.49-33.61,1.07c-33.64,21.44-72.6,32.77-112.68,32.77c-40.07,0-79.03-11.33-112.67-32.77
		c-10.3-6.57-22.86-6.96-33.61-1.07c-10.86,5.96-17.34,16.89-17.34,29.25v82.72c0,90.23,73.4,163.63,163.63,163.63
		C323.24,450.03,396.64,376.63,396.64,286.4z M53.47,291.56c-0.05-1.71-0.08-3.43-0.08-5.16v-45.33
		c-10.7,3.4-18.47,13.43-18.47,25.23C34.92,278.14,42.73,288.18,53.47,291.56z"/>
	<path style="fill:#7C460A;" d="M332.92,224.87c3.12,3.13,3.13,8.19,0,11.32c-1.56,1.56-3.61,2.34-5.66,2.34
		c-2.04,0-4.09-0.78-5.65-2.34c-7.1-7.1-18.65-7.1-25.74,0c-3.13,3.12-8.19,3.12-11.32,0c-3.12-3.13-3.12-8.19,0-11.32
		C297.89,211.54,319.59,211.54,332.92,224.87z"/>
	<path style="fill:#0677CC;" d="M308.74,273.38c7.43,0,13.46,6.02,13.46,13.46c0,7.43-6.03,13.46-13.46,13.46
		c-7.44,0-13.46-6.03-13.46-13.46C295.28,279.4,301.3,273.38,308.74,273.38z"/>
	<path style="fill:#333333;" d="M288.61,371.19c0,9.59-2.46,16.62-7.52,21.48c-6.31,6.07-14.98,7.32-25.09,7.32
		c-3.4,0-6.97-0.14-10.67-0.29c-3.98-0.16-8.1-0.32-12.31-0.32c-4.22,0-8.33,0.16-12.32,0.32c-14.66,0.58-27.31,1.09-35.76-7.03
		c-5.06-4.86-7.52-11.89-7.52-21.48c0-5.08,0.7-9.99,1.98-14.66c0.07-0.35,0.17-0.69,0.29-1.02c6.78-23.04,28.12-39.92,53.33-39.92
		c25.28,0,46.66,16.98,53.38,40.12c0.08,0.23,0.15,0.47,0.2,0.71C287.9,361.12,288.61,366.07,288.61,371.19z M270.01,381.13
		c1.72-1.66,2.6-5,2.6-9.94c0-2.79-0.29-5.51-0.84-8.14c-11.46-7.76-24.79-11.85-38.75-11.85c-13.96,0-27.3,4.08-38.75,11.85
		c-0.55,2.62-0.85,5.35-0.85,8.14c0,4.94,0.88,8.28,2.61,9.94c3.53,3.4,13.49,3,24.04,2.58c4.14-0.16,8.41-0.33,12.95-0.33
		c4.53,0,8.81,0.17,12.94,0.33C256.51,384.13,266.47,384.53,270.01,381.13z M254.44,337.91c-6.18-3.99-13.53-6.32-21.42-6.32
		s-15.24,2.33-21.42,6.32c6.92-1.79,14.1-2.71,21.42-2.71C240.34,335.2,247.51,336.12,254.44,337.91z"/>
	<path style="fill:#7C460A;" d="M183.99,224.87c3.13,3.13,3.13,8.19,0,11.32c-1.56,1.56-3.61,2.34-5.65,2.34
		c-2.05,0-4.1-0.78-5.66-2.34c-7.1-7.1-18.64-7.1-25.74,0c-3.12,3.12-8.19,3.12-11.31,0c-3.13-3.13-3.13-8.19,0-11.32
		C148.96,211.54,170.66,211.54,183.99,224.87z"/>
	<path style="fill:#0677CC;" d="M159.81,273.38c7.43,0,13.46,6.02,13.46,13.46c0,7.43-6.03,13.46-13.46,13.46
		c-7.44,0-13.46-6.03-13.46-13.46C146.35,279.4,152.37,273.38,159.81,273.38z"/>
</g>
</svg>